<?xml version="1.0" encoding="UTF-8" standalone="no"?>
<!-- Created with Inkscape (http://www.inkscape.org/) -->

<svg
   xmlns:dc="http://purl.org/dc/elements/1.1/"
   xmlns:cc="http://creativecommons.org/ns#"
   xmlns:rdf="http://www.w3.org/1999/02/22-rdf-syntax-ns#"
   xmlns:svg="http://www.w3.org/2000/svg"
   xmlns="http://www.w3.org/2000/svg"
   xmlns:sodipodi="http://sodipodi.sourceforge.net/DTD/sodipodi-0.dtd"
   xmlns:inkscape="http://www.inkscape.org/namespaces/inkscape"
   width="300"
   height="43"
   viewBox="0 0 79.374999 11.377084"
   version="1.1"
   id="svg5450"
   inkscape:version="0.92.3 (2405546, 2018-03-11)"
   sodipodi:docname="qodr.svg">
  <defs
     id="defs5444" />
  <sodipodi:namedview
     id="base"
     pagecolor="#ffffff"
     bordercolor="#666666"
     borderopacity="1.0"
     inkscape:pageopacity="0.0"
     inkscape:pageshadow="2"
     inkscape:zoom="2.8"
     inkscape:cx="96.328646"
     inkscape:cy="63.087898"
     inkscape:document-units="mm"
     inkscape:current-layer="layer1"
     showgrid="false"
     width="200mm"
     units="px"
     inkscape:window-width="1920"
     inkscape:window-height="1025"
     inkscape:window-x="0"
     inkscape:window-y="27"
     inkscape:window-maximized="1" />
  <metadata
     id="metadata5447">
    <rdf:RDF>
      <cc:Work
         rdf:about="">
        <dc:format>image/svg+xml</dc:format>
        <dc:type
           rdf:resource="http://purl.org/dc/dcmitype/StillImage" />
        <dc:title></dc:title>
      </cc:Work>
    </rdf:RDF>
  </metadata>
  <g
     inkscape:label="Layer 1"
     inkscape:groupmode="layer"
     id="layer1"
     transform="translate(0,-285.62292)">
    <g
       transform="matrix(0.26458333,0,0,0.26458333,-17.821583,259.69238)"
       style="font-style:normal;font-variant:normal;font-weight:normal;font-stretch:normal;font-size:57.17731857px;line-height:125%;font-family:'Coco Puff';-inkscape-font-specification:'Coco Puff';letter-spacing:1.89875889px;word-spacing:0px;fill:#1a1a1a;fill-opacity:1;stroke:none;stroke-width:2.5999999;stroke-linecap:butt;stroke-linejoin:miter;stroke-miterlimit:4;stroke-dasharray:none;stroke-opacity:1"
       id="text3961">
      <path
         d="m 225.81891,119.44141 q 0,4.2883 -1.60096,8.00482 -1.60097,3.65935 -4.34548,6.40386 -2.74451,2.68734 -6.40386,4.23113 -3.65935,1.54378 -7.77612,1.54378 -4.28829,0 -8.00482,-1.60096 -3.65935,-1.60097 -6.40386,-4.34548 -2.68733,-2.80169 -4.23112,-6.46104 -1.54379,-3.65934 -1.54379,-7.77611 0,-4.11677 1.54379,-7.77612 1.54379,-3.71652 4.23112,-6.46103 2.74451,-2.74451 6.40386,-4.34548 3.71653,-1.600964 8.00482,-1.600964 4.2883,0 7.94765,1.600964 3.71653,1.60097 6.40386,4.34548 2.68733,2.74451 4.23112,6.46103 1.54379,3.65935 1.54379,7.77612 z m -6.8041,0 q 0,-2.63016 -1.08637,-5.0316 -1.02919,-2.40145 -2.85887,-4.17395 -1.82967,-1.82967 -4.23112,-2.85887 -2.40144,-1.08636 -5.14596,-1.08636 -2.74451,0 -5.14595,1.08636 -2.40145,1.0292 -4.23113,2.85887 -1.82967,1.7725 -2.91604,4.17395 -1.02919,2.40144 -1.02919,5.0316 0,2.63016 1.02919,5.0316 1.08637,2.40145 2.91604,4.23112 1.82968,1.7725 4.23113,2.85887 2.40144,1.02919 5.14595,1.02919 2.57298,0 4.97443,-0.97201 2.40145,-1.02919 4.23112,-2.80169 1.88685,-1.7725 2.97322,-4.17394 1.14355,-2.40145 1.14355,-5.20314 z"
         id="path4888"
         inkscape:connector-curvature="0" />
      <path
         d="m 277.85949,119.44141 q 0,4.2883 -1.60096,8.00482 -1.60097,3.65935 -4.34548,6.40386 -2.74451,2.68734 -6.40386,4.23113 -3.65934,1.54378 -7.77611,1.54378 -4.2883,0 -8.00483,-1.60096 -3.65934,-1.60097 -6.40386,-4.34548 -2.68733,-2.80169 -4.23112,-6.46104 -1.54378,-3.65934 -1.54378,-7.77611 0,-4.11677 1.54378,-7.77612 1.54379,-3.71652 4.23112,-6.46103 2.74452,-2.74451 6.40386,-4.34548 3.71653,-1.600964 8.00483,-1.600964 4.2883,0 7.94765,1.600964 3.71652,1.60097 6.40386,4.34548 2.68733,2.74451 4.23112,6.46103 1.54378,3.65935 1.54378,7.77612 z m -6.8041,0 q 0,-2.63016 -1.08637,-5.0316 -1.02919,-2.40145 -2.85886,-4.17395 -1.82968,-1.82967 -4.23112,-2.85887 -2.40145,-1.08636 -5.14596,-1.08636 -2.74451,0 -5.14596,1.08636 -2.40145,1.0292 -4.23112,2.85887 -1.82968,1.7725 -2.91604,4.17395 -1.0292,2.40144 -1.0292,5.0316 0,2.63016 1.0292,5.0316 1.08636,2.40145 2.91604,4.23112 1.82967,1.7725 4.23112,2.85887 2.40145,1.02919 5.14596,1.02919 2.57298,0 4.97443,-0.97201 2.40144,-1.02919 4.23112,-2.80169 1.88685,-1.7725 2.97322,-4.17394 1.14354,-2.40145 1.14354,-5.20314 z"
         id="path4890"
         inkscape:connector-curvature="0" />
      <path
         d="m 324.18235,119.44141 q 0,2.68733 -0.85766,5.60338 -0.80048,2.91604 -2.5158,5.60337 -1.71532,2.63016 -4.40266,4.8029 -2.68733,2.17274 -6.40386,3.25911 -0.45742,0.17153 -1.20072,0.34306 -0.68613,0.11435 -1.42943,0.28589 -0.68613,0.11435 -1.25791,0.17153 -0.51459,0.0572 -0.68612,0.0572 H 290.10467 V 99.257836 h 15.32352 q 0.45742,0 1.37225,0.171532 0.97202,0.171532 1.94403,0.457418 0.97202,0.228714 1.82968,0.514594 0.85766,0.22871 1.14354,0.40024 3.31629,1.48661 5.66056,3.60217 2.40144,2.11557 3.88805,4.63137 1.54379,2.45862 2.22992,5.14596 0.68613,2.68733 0.68613,5.26031 z m -6.8041,0 q 0,-2.57298 -1.0292,-4.97443 -0.97201,-2.40144 -2.74451,-4.23112 -1.77249,-1.88685 -4.23112,-2.97322 -2.40145,-1.14355 -5.20313,-1.14355 h -7.37588 v 26.64463 h 7.08999 q 2.63016,0 5.08878,-0.97201 2.45863,-1.02919 4.2883,-2.80169 1.88685,-1.7725 2.97322,-4.23112 1.14355,-2.45862 1.14355,-5.31749 z"
         id="path4892"
         inkscape:connector-curvature="0" />
      <path
         d="m 366.24371,139.73936 h -7.71894 l -8.11918,-13.72256 h -9.94885 v 13.72256 h -6.74693 V 99.429348 h 17.95368 q 0.11436,0 0.5146,0.05718 0.45742,0.05718 0.97201,0.171532 0.5146,0.114355 1.02919,0.285887 0.5146,0.114353 0.80049,0.228703 2.40144,0.91484 4.11676,2.34427 1.71532,1.37226 2.74451,3.0304 1.08637,1.65814 1.60097,3.54499 0.5146,1.82968 0.5146,3.65935 0,1.42944 -0.34307,3.0304 -0.34306,1.54379 -1.14355,3.08758 -0.80048,1.54378 -2.11556,2.97322 -1.2579,1.37225 -3.14475,2.45862 z m -9.14837,-26.9877 q 0,-1.82967 -0.91484,-3.37346 -0.85766,-1.60096 -2.85887,-2.57298 -0.45741,-0.22871 -1.08637,-0.34306 -0.57177,-0.17153 -0.85765,-0.17153 h -10.92087 v 12.86489 h 10.92087 q 1.2579,0 2.28709,-0.57177 1.02919,-0.62895 1.77249,-1.60097 0.80049,-0.97201 1.20073,-2.05838 0.45742,-1.14355 0.45742,-2.17274 z"
         id="path4894"
         inkscape:connector-curvature="0" />
    </g>
    <path
       inkscape:connector-curvature="0"
       style="fill:#1a1a1a;fill-opacity:1;stroke:none;stroke-width:0.31750003;stroke-miterlimit:4;stroke-dasharray:none;stroke-opacity:1"
       d="m 36.516071,293.52899 -1.49727,0.86513 c 0.0748,0.0396 0.14257,0.0872 0.22084,0.12256 0.42357,0.18154 0.87729,0.27301 1.36141,0.27301 0.45382,0 0.89293,-0.0858 1.3165,-0.25724 0.0615,-0.0264 0.11411,-0.0643 0.17351,-0.0934 z"
       id="path3969" />
    <g
       inkscape:export-ydpi="150"
       inkscape:export-xdpi="150"
       inkscape:export-filename="D:\qodr\proposal_mdt\logo_text-up_bot.png"
       style="fill:#00a17f;fill-opacity:1"
       id="g3972"
       transform="matrix(0,0.18038262,-0.18038262,0,155.0907,443.54618)">
      <path
         id="path3974"
         transform="matrix(-1,0,0,1,-2149.7334,-469.99815)"
         d="m -1335.3633,1097.3594 5.7715,9.998 h -0.022 l 5.7735,10 v 0 l 5.7715,9.9981 5.7754,-9.9961 -5.7617,-9.9824 0.01,-0.018 -5.7754,-10.0039 h -11.541 z"
         style="fill:#00a17f;fill-opacity:1;stroke:none;stroke-width:1.20000005;stroke-miterlimit:4;stroke-dasharray:none;stroke-opacity:1"
         inkscape:connector-curvature="0" />
    </g>
    <path
       style="fill:#1a1a1a;fill-opacity:1;stroke:none;stroke-width:0.31750003;stroke-miterlimit:4;stroke-dasharray:none;stroke-opacity:1"
       d="m 9.3575916,286.03975 -3.066564,5.31154 1.532755,2.65524 H 4.7805571 l -1.530709,-2.65058 h -0.0051 l -1.529654,2.64955 0.0032,0.006 v 0.003 l 1.532755,2.65473 h 0.0032 3.0655745 l -0.0032,-0.005 h 0.0032 3.041148 3.0665974 3.059818 l 1.53332,-2.65524 1.538447,-2.6537 -3.066566,-5.31154 H 9.3593926 Z m 1.5338104,2.65628 h 3.06193 0.0042 l 1.533301,2.65578 -0.0032,0.004 -0.0032,-0.005 -1.527609,2.6568 h -3.066615 l -1.5332974,-2.65577 z"
       id="path3976"
       inkscape:connector-curvature="0"
       sodipodi:nodetypes="cccccccccccccccccccccccccccccccc"
       inkscape:export-filename="D:\qodr\proposal_mdt\logo_text-inline.png"
       inkscape:export-xdpi="150"
       inkscape:export-ydpi="150" />
    <g
       id="g3978"
       transform="matrix(0.26557687,0,0,0.26557687,222.58538,119.42586)"
       style="fill:#00a17f;fill-opacity:1"
       inkscape:export-filename="D:\qodr\proposal_mdt\logo_text-inline.png"
       inkscape:export-xdpi="150"
       inkscape:export-ydpi="150">
      <path
         inkscape:connector-curvature="0"
         style="fill:#00a17f;fill-opacity:1;stroke:none;stroke-width:1.20000005;stroke-miterlimit:4;stroke-dasharray:none;stroke-opacity:1"
         d="m 297.55469,366.75586 -5.77539,10.00391 0.0117,0.0195 -5.76172,9.97851 5.77539,9.9961 5.77148,-9.9961 -0.002,-0.004 5.77344,-10 h -0.0215 l 5.77149,-9.99805 h -11.54297 z"
         id="path3980"
         transform="translate(-1123.4673,260.60619)" />
    </g>
    <path
       style="fill:#00a17f;fill-opacity:1;stroke:none;stroke-width:0.31750003;stroke-miterlimit:4;stroke-dasharray:none;stroke-opacity:1"
       d="m 21.625487,291.3484 -3.060269,5.3114 h 3.060367 l 1.533808,-2.65627 z"
       id="path3982"
       inkscape:connector-curvature="0"
       sodipodi:nodetypes="ccccc"
       inkscape:export-filename="D:\qodr\proposal_mdt\logo_text-inline.png"
       inkscape:export-xdpi="150"
       inkscape:export-ydpi="150" />
    <path
       inkscape:connector-curvature="0"
       style="fill:#1a1a1a;fill-opacity:1;stroke:none;stroke-width:0.31750003;stroke-miterlimit:4;stroke-dasharray:none;stroke-opacity:1"
       d="m 18.56815,286.03864 1.532779,2.65524 h -0.0058 l 1.533308,2.65576 v 0 l 1.532778,2.65527 1.533809,-2.65474 -1.53017,-2.65109 0.0026,-0.005 -1.533813,-2.65681 h -3.065023 z"
       id="path3986" />
  </g>
</svg>
